<?xml version="1.0" encoding="utf-8"?>
<svg id="master-artboard" viewBox="0 0 1400 980" version="1.1" xmlns="http://www.w3.org/2000/svg" x="0px" y="0px" style="enable-background:new 0 0 1400 980;" width="1400px" height="980px" xmlns:xlink="http://www.w3.org/1999/xlink"><defs><path d="M116.612,3.643 C92.293,17.641 35.707,50.383 11.389,64.38 C4.389,68.414 0,76.006 0,84.073 L0,205.549 C0,213.615 4.389,221.208 11.389,225.241 C35.589,239.239 92.293,271.98 116.612,285.979 C123.729,290.011 132.389,290.011 139.388,285.979 C163.589,271.98 220.293,239.239 244.611,225.241 C251.61,221.208 256,213.615 256,205.549 L256,84.073 C256,75.888 251.61,68.414 244.611,64.38 C220.411,50.383 163.707,17.641 139.388,3.643 C135.829,1.626 131.885,0.618 127.955,0.618 C124.026,0.618 120.111,1.626 116.612,3.643 Z" id="path-1"/><style id="ee-google-fonts">@import url(https://fonts.googleapis.com/css?family=Actor:400);</style></defs><g transform="matrix(3.3910036714019247, 0, 0, 3.3910036714019247, 265.95151705590445, -0.0000026009299745055614)"><g>
        <mask id="mask-2" fill="white">
            <use xlink:href="#path-1"/>
        </mask>
        <use fill="#00C9FF" fill-rule="nonzero" xlink:href="#path-1"/>
        <g mask="url(#mask-2)" fill-rule="nonzero">
            <g transform="translate(0.000000, -3.000000)">
                <path d="M 66.55030059814453 147.81089782714844 L 128.00030517578125 295.85888671875 L 0.0003000000142492354 221.7158966064453 Z" fill="#1A67FD"/>
                <path d="M 66.55030059814453 147.81089782714844 L 0.0003000000142492354 73.43090057373047 L 0.0003000000142492354 221.7158966064453 Z" fill="#0DA7FE"/>
                <path d="M 66.55030059814453 147.81089782714844 L 128.00030517578125 -0.00010000000474974513 L 256.00030517578125 221.7158966064453 Z" fill="#00C9FF"/>
                <path d="M 66.55030059814453 147.81089782714844 L 128.00030517578125 -0.00010000000474974513 L 0.0003000000142492354 73.43090057373047 Z" fill="#05BBFF"/>
                <path d="M 128 295.85931396484375 L 256 221.71629333496094 L 66.55000305175781 147.81129455566406 Z" fill="#1A86FD"/>
                <path d="M 256 221.71620178222656 L 256 73.90519714355469 L 128 0.00020000000949949026 Z" fill="#05BBFF"/>
                <path d="M 155.04739379882812 135.3549041748047 L 171.2993927001953 151.60690307617188 L 163.23240661621094 159.6739044189453 L 155.04739379882812 167.85890197753906 L 109.25640106201172 213.64990234375 L 93.00540161132812 197.3968963623047 L 138.79539489746094 151.60690307617188 L 93.00540161132812 105.81590270996094 L 109.25640106201172 89.56390380859375 Z" fill-opacity="0.5" fill="#1A67FD"/>
                <path d="M 171.29930114746094 144.25180053710938 L 155.04730224609375 127.99980163574219 L 93.00530242919922 190.0428009033203 L 109.2573013305664 206.2947998046875 Z" fill="#D6FFFF"/>
                <path d="M109.2568,82.328 L93.1228,98.58 L155.1658,160.623 L171.4178,144.37 C171.2988,144.252 109.2568,82.328 109.2568,82.328" fill="#D6FFFF"/>
            </g>
        </g>
    </g></g><g transform="matrix(1.1837528944015503, -0.04161081090569496, 0.04161081090569496, 1.1837528944015503, 684.1921281952503, -183.6238130025627)"><g id="Layer_2_18_" transform="matrix(2.111283302307129, 0.8877271413803101, -0.8877271413803101, 2.111283302307129, 166.64435719160429, -341.42073414751314)">
	<g id="Layer_1-2_18_">
		<path class="st0" d="M103,336.5L53,424h100L103,336.5" style="fill: rgb(0, 200, 255);"/>
	</g>
</g></g><g transform="matrix(-1.1839470863342283, 0.03566907346248626, -0.03566907346248626, -1.1839470863342283, 742.102033928406, 1339.2252753608482)"><g id="g-1" transform="matrix(2.111283302307129, 0.8877271413803101, -0.8877271413803101, 2.111283302307129, 166.64435719160429, -341.42073414751314)">
	<g id="g-2">
		<path class="st0" d="M103,336.5L53,424h100L103,336.5" style="fill: rgb(26, 136, 253);"/>
	</g>
</g></g><g transform="matrix(-0.5444555282592773, 0.016402944922447205, -0.016402944922447205, -0.5444555282592773, 642.757132587354, 965.9014097442312)"><g id="g-3" transform="matrix(2.111283302307129, 0.8877271413803101, -0.8877271413803101, 2.111283302307129, 166.64435719160429, -341.42073414751314)">
	<g id="g-4">
		<path class="st0" d="M103,336.5L53,424h100L103,336.5" style="fill: rgb(26, 136, 253);"/>
	</g>
</g></g><g transform="matrix(1.1398035287857056, -0.5638382434844971, 0.5638382434844971, 1.1398035287857056, 287.1294365008016, -291.25701617997544)"><g id="g-5" transform="matrix(2.111283302307129, 0.8877271413803101, -0.8877271413803101, 2.111283302307129, 166.64435719160429, -341.42073414751314)">
	<g id="g-6">
		<path class="st0" d="M103,336.5L53,424h100L103,336.5" style="fill: rgb(0, 200, 255);"/>
	</g>
</g></g><g transform="matrix(1.1842272005321888, -0.46332697182389015, 0.46332697182389015, 1.1842272005321888, 435.0980457378686, -226.29151586020515)"><g id="g-7" transform="matrix(2.111283302307129, 0.8877271413803101, -0.8877271413803101, 2.111283302307129, 166.64435719160429, -341.42073414751314)">
	<g id="g-8">
		<path class="st0" d="M103,336.5L53,424h100L103,336.5" style="fill: rgb(0, 200, 255);"/>
	</g>
</g></g><path d="M 18.350000381469727 1.2999992370605469 C 17.683332443237305 1.1333332061767578 16.983333587646484 0.9799995422363281 16.25 0.8400001525878906 C 15.609999656677246 0.7000007629394531 14.876667022705078 0.5799999237060547 14.050000190734863 0.4799995422363281 C 13.223333358764648 0.38666725158691406 12.363333702087402 0.3400001525878906 11.470000267028809 0.3400001525878906 C 9.396666526794434 0.3400001525878906 7.909999847412109 0.6533336639404297 7.010000228881836 1.2800006866455078 C 6.116666793823242 1.9133338928222656 5.670000076293945 2.886667251586914 5.670000076293945 4.200000762939453 C 5.696666717529297 5.239999771118164 6.073333263397217 6.116666793823242 6.800000190734863 6.829999923706055 C 7.5333333015441895 7.543333053588867 8.443333625793457 8.200000762939453 9.529999732971191 8.799999237060547 C 10.623332977294922 9.399999618530273 11.823333740234375 9.986665725708008 13.130000114440918 10.5600004196167 C 14.430000305175781 11.140000343322754 15.626667022705078 11.800000190734863 16.719999313354492 12.539999961853027 C 17.80666732788086 13.279999732971191 18.72333335876465 14.146666526794434 19.469999313354492 15.140000343322754 C 20.209999084472656 16.133333206176758 20.579999923706055 17.34666633605957 20.579999923706055 18.780000686645508 C 20.579999923706055 20.426666259765625 20.22333335876465 21.75666618347168 19.510000228881836 22.770000457763672 C 18.796667098999023 23.77666664123535 17.893333435058594 24.559999465942383 16.799999237060547 25.1200008392334 C 15.706666946411133 25.68000030517578 14.510000228881836 26.05666732788086 13.210000038146973 26.25 C 11.90999984741211 26.450000762939453 10.670000076293945 26.549999237060547 9.489999771118164 26.549999237060547 C 8.369999885559082 26.549999237060547 7.349999904632568 26.479999542236328 6.429999828338623 26.34000015258789 C 5.503333568572998 26.200000762939453 4.703333377838135 26.043333053588867 4.03000020980835 25.8700008392334 C 3.25 25.676666259765625 2.5366666316986084 25.453332901000977 1.8899999856948853 25.200000762939453 L 2.7300000190734863 21.799999237060547 C 3.376666784286499 22.079999923706055 4.063333511352539 22.316665649414062 4.789999961853027 22.510000228881836 C 5.429999828338623 22.683334350585938 6.150000095367432 22.84000015258789 6.949999809265137 22.979999542236328 C 7.75 23.119998931884766 8.59666633605957 23.190000534057617 9.489999771118164 23.190000534057617 C 10.583333015441895 23.190000534057617 11.58666706085205 23.119998931884766 12.5 22.979999542236328 C 13.40666675567627 22.84000015258789 14.196666717529297 22.613332748413086 14.869999885559082 22.299999237060547 C 15.543333053588867 21.99333381652832 16.066667556762695 21.59000015258789 16.440000534057617 21.09000015258789 C 16.81999969482422 20.58333396911621 17.010000228881836 19.96666717529297 17.010000228881836 19.239999771118164 C 16.983333587646484 18.14666748046875 16.626667022705078 17.256668090820312 15.9399995803833 16.56999969482422 C 15.25333309173584 15.883333206176758 14.34333324432373 15.226666450500488 13.210000038146973 14.600000381469727 C 12.076666831970215 13.966666221618652 10.856666564941406 13.356666564941406 9.550000190734863 12.770000457763672 C 8.25 12.183333396911621 7.053333282470703 11.510000228881836 5.960000038146973 10.75 C 4.87333345413208 9.996665954589844 3.9566667079925537 9.10333251953125 3.2100000381469727 8.069999694824219 C 2.4700000286102295 7.030000686645508 2.0999999046325684 5.739999771118164 2.0999999046325684 4.200000762939453 C 2.0999999046325684 3.3066673278808594 2.253333330154419 2.426666259765625 2.559999942779541 1.5599994659423828 C 2.866666555404663 0.6866664886474609 3.3933334350585938 -0.08333396911621094 4.139999866485596 -0.75 C 4.880000114440918 -1.4233341217041016 5.8466668128967285 -1.9699993133544922 7.039999961853027 -2.3899993896484375 C 8.226666450500488 -2.809999465942383 9.703332901000977 -3.020000457763672 11.470000267028809 -3.020000457763672 C 12.476666450500488 -3.020000457763672 13.433333396911621 -2.9733333587646484 14.34000015258789 -2.8799991607666016 C 15.25333309173584 -2.780000686645508 16.046667098999023 -2.6733341217041016 16.719999313354492 -2.559999465942383 C 17.5 -2.4200000762939453 18.239999771118164 -2.2666664123535156 18.940000534057617 -2.1000003814697266 L 18.350000381469727 1.2999992370605469 Z" transform="matrix(12.02336311340332, 0, 0, 12.02336311340332, 578.1824340820312, 337.91033935546875)" style="fill: rgb(13, 154, 254); white-space: pre; color: rgb(214, 255, 255);"/><path d="M 18.350000381469727 1.2999992370605469 C 17.683332443237305 1.1333332061767578 16.983333587646484 0.9799995422363281 16.25 0.8400001525878906 C 15.609999656677246 0.7000007629394531 14.876667022705078 0.5799999237060547 14.050000190734863 0.4799995422363281 C 13.223333358764648 0.38666725158691406 12.363333702087402 0.3400001525878906 11.470000267028809 0.3400001525878906 C 9.396666526794434 0.3400001525878906 7.909999847412109 0.6533336639404297 7.010000228881836 1.2800006866455078 C 6.116666793823242 1.9133338928222656 5.670000076293945 2.886667251586914 5.670000076293945 4.200000762939453 C 5.696666717529297 5.239999771118164 6.073333263397217 6.116666793823242 6.800000190734863 6.829999923706055 C 7.5333333015441895 7.543333053588867 8.443333625793457 8.200000762939453 9.529999732971191 8.799999237060547 C 10.623332977294922 9.399999618530273 11.823333740234375 9.986665725708008 13.130000114440918 10.5600004196167 C 14.430000305175781 11.140000343322754 15.626667022705078 11.800000190734863 16.719999313354492 12.539999961853027 C 17.80666732788086 13.279999732971191 18.72333335876465 14.146666526794434 19.469999313354492 15.140000343322754 C 20.209999084472656 16.133333206176758 20.579999923706055 17.34666633605957 20.579999923706055 18.780000686645508 C 20.579999923706055 20.426666259765625 20.22333335876465 21.75666618347168 19.510000228881836 22.770000457763672 C 18.796667098999023 23.77666664123535 17.893333435058594 24.559999465942383 16.799999237060547 25.1200008392334 C 15.706666946411133 25.68000030517578 14.510000228881836 26.05666732788086 13.210000038146973 26.25 C 11.90999984741211 26.450000762939453 10.670000076293945 26.549999237060547 9.489999771118164 26.549999237060547 C 8.369999885559082 26.549999237060547 7.349999904632568 26.479999542236328 6.429999828338623 26.34000015258789 C 5.503333568572998 26.200000762939453 4.703333377838135 26.043333053588867 4.03000020980835 25.8700008392334 C 3.25 25.676666259765625 2.5366666316986084 25.453332901000977 1.8899999856948853 25.200000762939453 L 2.7300000190734863 21.799999237060547 C 3.376666784286499 22.079999923706055 4.063333511352539 22.316665649414062 4.789999961853027 22.510000228881836 C 5.429999828338623 22.683334350585938 6.150000095367432 22.84000015258789 6.949999809265137 22.979999542236328 C 7.75 23.119998931884766 8.59666633605957 23.190000534057617 9.489999771118164 23.190000534057617 C 10.583333015441895 23.190000534057617 11.58666706085205 23.119998931884766 12.5 22.979999542236328 C 13.40666675567627 22.84000015258789 14.196666717529297 22.613332748413086 14.869999885559082 22.299999237060547 C 15.543333053588867 21.99333381652832 16.066667556762695 21.59000015258789 16.440000534057617 21.09000015258789 C 16.81999969482422 20.58333396911621 17.010000228881836 19.96666717529297 17.010000228881836 19.239999771118164 C 16.983333587646484 18.14666748046875 16.626667022705078 17.256668090820312 15.9399995803833 16.56999969482422 C 15.25333309173584 15.883333206176758 14.34333324432373 15.226666450500488 13.210000038146973 14.600000381469727 C 12.076666831970215 13.966666221618652 10.856666564941406 13.356666564941406 9.550000190734863 12.770000457763672 C 8.25 12.183333396911621 7.053333282470703 11.510000228881836 5.960000038146973 10.75 C 4.87333345413208 9.996665954589844 3.9566667079925537 9.10333251953125 3.2100000381469727 8.069999694824219 C 2.4700000286102295 7.030000686645508 2.0999999046325684 5.739999771118164 2.0999999046325684 4.200000762939453 C 2.0999999046325684 3.3066673278808594 2.253333330154419 2.426666259765625 2.559999942779541 1.5599994659423828 C 2.866666555404663 0.6866664886474609 3.3933334350585938 -0.08333396911621094 4.139999866485596 -0.75 C 4.880000114440918 -1.4233341217041016 5.8466668128967285 -1.9699993133544922 7.039999961853027 -2.3899993896484375 C 8.226666450500488 -2.809999465942383 9.703332901000977 -3.020000457763672 11.470000267028809 -3.020000457763672 C 12.476666450500488 -3.020000457763672 13.433333396911621 -2.9733333587646484 14.34000015258789 -2.8799991607666016 C 15.25333309173584 -2.780000686645508 16.046667098999023 -2.6733341217041016 16.719999313354492 -2.559999465942383 C 17.5 -2.4200000762939453 18.239999771118164 -2.2666664123535156 18.940000534057617 -2.1000003814697266 L 18.350000381469727 1.2999992370605469 Z" transform="matrix(12.02336311340332, 0, 0, 12.02336311340332, 562.3353881835938, 327.48748779296875)" style="fill: rgb(214, 255, 255); white-space: pre; color: rgb(214, 255, 255);"/></svg>