<?xml version="1.0" standalone="no"?>
<!DOCTYPE svg PUBLIC "-//W3C//DTD SVG 20010904//EN"
 "http://www.w3.org/TR/2001/REC-SVG-20010904/DTD/svg10.dtd">
<svg version="1.0" xmlns="http://www.w3.org/2000/svg"
 width="1473.000000pt" height="1473.000000pt" viewBox="0 0 1473.000000 1473.000000"
 preserveAspectRatio="xMidYMid meet">
<metadata>
Created by potrace 1.11, written by Peter Selinger 2001-2013
</metadata>
<g transform="translate(0.000000,1473.000000) scale(0.100000,-0.100000)"
fill="#000000" stroke="none">
<path d="M7260 14638 c-104 -8 -217 -34 -323 -74 -69 -27 -667 -366 -1652
-939 -115 -67 -435 -252 -710 -410 -275 -159 -761 -439 -1080 -623 -929 -536
-1262 -729 -1642 -948 -197 -114 -382 -222 -412 -241 -228 -146 -395 -363
-480 -623 -53 -162 -51 4 -51 -3411 0 -2804 2 -3176 15 -3255 50 -286 212
-555 436 -722 30 -22 200 -124 379 -227 179 -103 494 -285 700 -405 206 -119
623 -360 925 -535 303 -175 663 -383 800 -463 138 -80 489 -282 780 -450 292
-167 582 -335 645 -372 63 -37 205 -119 315 -182 110 -63 346 -200 525 -303
179 -103 364 -207 413 -231 187 -94 353 -130 571 -121 242 9 361 51 691 242
94 54 213 123 265 153 365 211 1103 637 1820 1050 129 74 314 181 410 237 96
56 283 164 415 240 132 76 382 220 555 320 402 233 933 539 1360 785 184 106
365 213 402 237 81 54 213 183 273 267 83 116 158 287 197 446 11 45 13 631
13 3300 l0 3245 -28 100 c-70 250 -217 472 -410 618 -40 30 -265 166 -502 303
-740 427 -980 565 -1310 756 -176 102 -729 422 -1230 710 -500 289 -1054 608
-1230 710 -811 469 -1179 680 -1232 706 -175 88 -393 127 -613 110z m555
-4308 c198 -17 417 -49 660 -97 127 -24 231 -46 233 -48 2 -2 -8 -63 -22 -137
-14 -73 -37 -203 -51 -288 -15 -85 -28 -162 -31 -171 -3 -13 -35 -8 -227 33
-416 89 -661 118 -1012 118 -446 0 -704 -69 -865 -230 -112 -112 -161 -247
-162 -440 -1 -122 23 -227 75 -324 61 -114 239 -280 437 -408 79 -51 410 -230
511 -276 488 -222 646 -303 863 -440 211 -134 430 -330 564 -507 142 -188 212
-415 212 -683 -1 -271 -63 -506 -180 -681 -316 -469 -903 -693 -1820 -693
-261 0 -405 12 -642 53 -294 50 -698 164 -698 196 0 14 141 585 146 592 2 2
59 -17 127 -42 229 -85 593 -165 847 -188 166 -15 525 -7 695 16 488 63 782
240 858 515 25 87 29 149 17 243 -20 163 -91 308 -201 413 -225 214 -467 356
-1143 674 -194 91 -442 227 -565 309 -268 180 -499 415 -615 624 -197 356
-174 933 50 1274 55 82 190 220 281 285 248 179 583 291 951 318 137 10 534 4
707 -10z"/>
</g>
</svg>
