<?xml version="1.0" standalone="no"?>
<!DOCTYPE svg PUBLIC "-//W3C//DTD SVG 20010904//EN"
 "http://www.w3.org/TR/2001/REC-SVG-20010904/DTD/svg10.dtd">
<svg version="1.0" xmlns="http://www.w3.org/2000/svg"
 width="700.000000pt" height="700.000000pt" viewBox="0 0 700.000000 700.000000"
 preserveAspectRatio="xMidYMid meet">
<metadata>
Created by potrace 1.11, written by Peter Selinger 2001-2013
</metadata>
<g transform="translate(0.000000,700.000000) scale(0.100000,-0.100000)"
fill="#000000" stroke="none">
<path d="M0 3500 l0 -3500 3500 0 3500 0 0 3500 0 3500 -3500 0 -3500 0 0
-3500z m4075 1945 c55 -9 125 -23 155 -30 30 -8 78 -17 105 -21 28 -3 58 -11
67 -16 10 -5 37 -13 60 -18 111 -24 265 -74 283 -91 5 -5 15 -9 23 -9 17 0
120 -48 127 -60 3 -5 19 -11 35 -15 17 -4 30 -12 30 -18 0 -21 -422 -856 -436
-861 -7 -3 -23 3 -36 13 -13 10 -34 22 -48 26 -14 4 -52 20 -85 35 -74 34
-167 70 -180 70 -6 0 -22 6 -37 14 -14 8 -50 17 -80 21 -29 4 -61 11 -70 16
-26 14 -241 39 -328 39 -152 0 -304 -36 -351 -81 -21 -21 -49 -103 -49 -143 0
-120 78 -197 265 -265 33 -12 74 -28 90 -35 40 -18 251 -83 295 -92 19 -3 49
-12 65 -19 60 -25 111 -44 135 -51 14 -4 57 -22 97 -40 40 -19 75 -34 78 -34
3 0 49 -26 101 -57 52 -32 111 -66 129 -76 19 -10 35 -23 35 -28 0 -5 6 -9 14
-9 8 0 16 -3 18 -7 2 -5 21 -21 43 -37 46 -34 53 -40 118 -102 26 -25 47 -47
47 -49 0 -3 7 -13 16 -22 34 -39 82 -109 89 -133 4 -14 11 -27 15 -30 11 -8
46 -91 68 -160 48 -155 54 -208 50 -407 -4 -177 -10 -223 -43 -333 -7 -25 -16
-61 -20 -80 -15 -74 -127 -280 -192 -350 -59 -65 -105 -110 -113 -110 -6 0
-10 -4 -10 -8 0 -5 -21 -24 -47 -42 -27 -19 -50 -37 -53 -40 -7 -8 -130 -80
-138 -80 -4 0 -43 -18 -87 -40 -44 -22 -88 -40 -98 -40 -9 0 -25 -4 -35 -10
-26 -15 -132 -48 -177 -55 -22 -3 -65 -12 -95 -20 -125 -31 -248 -45 -475 -55
-364 -14 -607 2 -800 55 -27 8 -68 17 -90 21 -22 4 -69 18 -105 31 -36 13 -83
30 -105 38 -46 16 -95 35 -147 58 -21 10 -42 17 -47 17 -6 0 -32 13 -59 29
-27 16 -60 32 -73 36 -13 4 -26 11 -29 14 -3 4 -29 22 -57 41 -29 18 -53 37
-53 42 0 4 -7 8 -15 8 -8 0 -15 4 -15 9 0 5 -13 17 -29 28 -15 10 -45 32 -65
50 l-36 32 22 38 c12 21 28 49 36 63 7 14 24 41 35 62 12 20 44 74 71 120 27
45 52 85 56 88 3 3 12 20 19 38 8 17 17 32 21 32 4 0 11 8 14 18 4 9 16 33 29
54 12 20 53 90 91 155 38 65 79 132 90 148 12 17 27 43 34 58 15 34 40 30 83
-14 16 -16 31 -29 34 -29 4 0 25 -15 48 -33 23 -19 65 -46 92 -62 28 -16 52
-31 55 -35 3 -4 16 -11 29 -15 13 -4 45 -20 71 -35 26 -15 57 -31 70 -35 13
-4 44 -20 69 -34 25 -15 60 -31 76 -35 17 -4 44 -13 60 -20 109 -46 137 -51
305 -51 171 0 192 4 270 51 14 8 32 17 40 20 17 6 46 49 72 109 35 81 14 183
-53 253 -32 34 -207 132 -236 132 -6 0 -26 7 -45 16 -76 38 -90 44 -104 44
-16 0 -101 32 -147 56 -16 8 -33 14 -39 14 -6 0 -29 9 -52 19 -23 11 -48 22
-56 25 -8 3 -22 10 -30 15 -8 4 -40 21 -70 36 -30 15 -73 38 -95 51 -22 13
-49 28 -60 34 -19 10 -72 44 -131 85 -148 101 -364 312 -364 354 0 6 -5 11
-10 11 -6 0 -15 12 -21 28 -9 26 -31 75 -51 115 -5 10 -19 60 -30 110 -25 108
-36 362 -19 448 6 30 16 81 22 114 5 33 17 73 25 89 8 16 14 37 14 46 0 10 6
23 14 29 8 7 17 27 20 45 4 19 13 39 21 46 8 7 15 16 15 21 0 9 35 64 72 114
27 36 185 195 193 195 4 0 25 15 48 33 48 36 71 52 107 69 14 7 29 18 33 25 4
7 13 13 20 13 7 0 29 9 50 20 20 11 43 20 51 20 7 0 19 6 25 14 7 8 28 17 48
21 19 3 43 11 52 16 29 16 105 40 171 54 36 8 85 18 110 23 88 19 236 42 295
46 152 9 573 -2 670 -19z"/>
</g>
</svg>
